<?xml version="1.0" encoding="utf-8"?>
<!-- Generator: Adobe Illustrator 24.0.1, SVG Export Plug-In . SVG Version: 6.00 Build 0)  -->
<svg version="1.1" id="Layer_1" xmlns="http://www.w3.org/2000/svg" xmlns:xlink="http://www.w3.org/1999/xlink" x="0px" y="0px"
	 viewBox="0 0 40.7 46.15" style="enable-background:new 0 0 40.7 46.15; .st0{}
	.st1{fill:#6BB0DD;}
	.st2{fill:#99D3DD;}
	.st3{fill:#FFD879;}
	.st4{fill:#F5F3E6;}" xml:space="preserve">

<g>
	<g>
		<g>
			<path class="st0" style="fill:none;" d="M15.92,25.41c0.01-0.01,0.02-0.01,0.03-0.01c-0.01-0.01-0.02-0.02-0.03-0.03
				C15.92,25.38,15.92,25.4,15.92,25.41z"/>
			<path class="st0" style="fill:none;" d="M22.28,30.68c0.01,0,0.03,0,0.05-0.01c-0.01-0.01-0.03-0.02-0.04-0.03C22.28,30.65,22.28,30.67,22.28,30.68z
				"/>
			<path class="st0" style="fill:none;" d="M15.97,35.55c-0.01-0.03-0.04-0.06-0.05-0.09c-0.03,0.01-0.05,0.03-0.08,0.04
				C15.88,35.52,15.93,35.52,15.97,35.55z"/>
			<path class="st0" style="fill:none;" d="M12.31,32.52c0.05,0.06,0.06,0.13,0.11,0.19c0.01-0.05,0.03-0.09,0.05-0.14
				C12.41,32.56,12.36,32.52,12.31,32.52z"/>
			<path class="st0" style="fill:none;" d="M37.31,6.13C37.31,6.13,37.31,6.13,37.31,6.13c0.01,0.01,0.01,0.01,0.01,0.01c0.11-0.08,0.23-0.13,0.36-0.19
				c0.03-0.13,0.05-0.27,0.09-0.4c-0.1,0.05-0.2,0.08-0.3,0.13C37.42,5.82,37.37,5.98,37.31,6.13z"/>
			<path class="st0" style="fill:none;" d="M25.18,20.55c0,0.05,0,0.1,0,0.16c0,0,0,0,0,0.01c0,0,0,0,0.01,0c0.05-0.02,0.11-0.02,0.16-0.03
				c-0.02-0.02-0.03-0.04-0.05-0.05C25.26,20.6,25.22,20.58,25.18,20.55z"/>
			<path class="st0" style="fill:none;" d="M16.1,7.52c0.07-0.04,0.14-0.06,0.21-0.1c-0.04-0.02-0.07-0.04-0.11-0.06C16.17,7.41,16.13,7.47,16.1,7.52z"
				/>
			<path class="st1" style="fill:#6BB0DD;" d="M20.54,34.53c-0.05,0.06-0.1,0.12-0.15,0.18c-0.11,0.16-0.21,0.31-0.32,0.47c-1.38,2.33,0.72,4.61,2.27,6.52
				c1.85,2.29,3.98,4.49,6.9,5.32c0.19,0.05,0.34,0.14,0.47,0.24c2.08,0.57,4.06,1.52,5.8,2.92c2.33,1.87,4,4.49,4.72,7.36
				c1.02-2.88,0.4-6.35-1.36-9.01c-2.49-3.78-7.05-5.55-9.55-9.2c-1.91,2.03-5.44,2.12-7.38-0.23c-0.99-1.19,0.7-2.94,1.69-1.74
				c2.2,2.65,5.91-0.25,3.97-3.05C25.94,31.92,22.24,32.59,20.54,34.53z M36.93,47.72c0.24,0.07,0.45,0.19,0.63,0.35
				c0.09,0.09,0.18,0.19,0.24,0.3c0.05,0.1,0.12,0.24,0.14,0.36c0.05,0.32,0.05,0.62-0.11,0.91c-0.15,0.26-0.45,0.51-0.74,0.58
				c-0.26,0.06-0.54,0.05-0.78-0.06c-0.26-0.03-0.55-0.15-0.73-0.34c-0.22-0.23-0.38-0.54-0.37-0.87c0.01-0.1,0.03-0.2,0.04-0.31
				c0.05-0.21,0.16-0.39,0.3-0.54c0.16-0.2,0.42-0.32,0.65-0.39C36.41,47.65,36.72,47.66,36.93,47.72z M33.32,44.92
				c0.31,0.09,0.57,0.28,0.74,0.56c0.02,0.04,0.05,0.08,0.07,0.12c0.16,0.27,0.21,0.62,0.13,0.92c-0.08,0.29-0.29,0.6-0.56,0.74
				c-0.28,0.15-0.61,0.22-0.92,0.13c-0.31-0.09-0.57-0.28-0.74-0.56c-0.02-0.04-0.05-0.08-0.07-0.12c-0.16-0.27-0.21-0.62-0.13-0.92
				c0.08-0.29,0.29-0.6,0.56-0.74C32.68,44.9,33.02,44.82,33.32,44.92z M30.01,42.55c0.79,1.35-1.3,2.57-2.09,1.22
				C27.13,42.43,29.22,41.2,30.01,42.55z"/>
			<path class="st2" style="fill:#99D3DD;" d="M26.31,27.09c1.75-0.46,2.86-2.82,0.96-3.9c-2.04-1.16-3.61,2.05-4.08,3.56c-0.41,1.3-0.58,2.6-0.91,3.89
				c0.01,0.01,0.03,0.02,0.04,0.03c1.11-0.32,2.28-0.4,3.42-0.19c1.93,0.36,3.61,1.71,4.39,3.45c1.14-0.86,2.26-1.75,3.36-2.67
				c1.27-1.06,2.58-2.17,3.44-3.61c1.57-2.61,1.53-5.84,1.2-8.77c-0.11-0.96-0.25-1.93-0.38-2.9c-1.74-0.11-3.5,0.28-4.97,1.26
				c-1.41,0.94-2.68,2.93-1.66,4.61c0.81,1.34,3.57,1.39,3.12-0.64c-0.34-1.52,2.01-2.15,2.34-0.62c0.77,3.48-3,5.77-5.87,4.14
				c0.06,2.2-1.68,4.16-3.78,4.71C25.43,29.82,24.8,27.48,26.31,27.09z M31.38,28.84c-0.14-0.27-0.15-0.65-0.05-0.93
				c0.1-0.29,0.34-0.55,0.62-0.69c0.06-0.03,0.11-0.05,0.17-0.08c0.3-0.14,0.62-0.14,0.93-0.05c0.31,0.1,0.54,0.35,0.69,0.62
				c0.14,0.27,0.15,0.65,0.05,0.93c-0.1,0.29-0.34,0.55-0.62,0.69c-0.06,0.03-0.11,0.05-0.17,0.08c-0.3,0.14-0.62,0.14-0.93,0.05
				C31.76,29.37,31.53,29.12,31.38,28.84z"/>
			<path class="st3" style="fill:#FFD879;" d="M16.07,42.03c-1.5,0.41-2.14-1.93-0.62-2.34c0.87-0.24,0.02-1.53-0.3-1.8c-0.54-0.45-1.28-0.6-1.93-0.32
				c-1.63,0.7-1.19,2.5-0.69,3.81c1.13,2.98,3.51,5.74,6.89,5.89c0.12,0.01,0.22,0.03,0.32,0.06c1.31-0.35,2.66-0.57,4.01-0.65
				c-1.24-1.05-2.34-2.28-3.36-3.56c-0.81-1.02-1.65-2.07-2.27-3.18C17.91,40.88,17.27,41.7,16.07,42.03z"/>
			<path class="st1" style="fill:#6BB0DD;" d="M-5.68,16.03c1.7,1.45,3,3.22,3.94,5.16c0.13,0.1,0.24,0.24,0.32,0.41c1.35,2.71,3.91,4.39,6.5,5.79
				c2.17,1.17,4.79,2.81,6.83,1.02c0.13-0.14,0.26-0.27,0.4-0.4c0.05-0.06,0.1-0.12,0.15-0.18c1.58-2.03,1.56-5.78-1.08-6.96
				c-3.12-1.39-5.28,2.79-2.27,4.47c1.36,0.76-0.04,2.74-1.39,1.98c-2.66-1.48-3.23-4.97-1.59-7.21c-4.05-1.78-6.63-5.93-10.81-7.68
				c-2.94-1.23-6.47-1.2-9.11,0.34C-10.83,12.93-7.95,14.09-5.68,16.03z M2.83,20.01c1.47,0.53,0.65,2.81-0.82,2.28
				C0.54,21.77,1.36,19.49,2.83,20.01z M-0.93,16.52c0.04,0.02,0.08,0.03,0.13,0.05c0.31,0.11,0.54,0.34,0.69,0.62
				c0.15,0.29,0.14,0.63,0.05,0.93c-0.09,0.29-0.35,0.56-0.62,0.69c-0.28,0.13-0.63,0.15-0.93,0.05c-0.04-0.01-0.08-0.03-0.13-0.05
				c-0.31-0.11-0.54-0.34-0.69-0.62c-0.15-0.29-0.14-0.63-0.05-0.93c0.09-0.29,0.35-0.56,0.62-0.69
				C-1.57,16.44-1.22,16.42-0.93,16.52z M-5.8,15.27c-0.16-0.23-0.22-0.51-0.21-0.79c0.01-0.31,0.2-0.65,0.43-0.84
				c0.26-0.21,0.55-0.27,0.87-0.28c0.12,0,0.27,0.04,0.38,0.07c0.12,0.04,0.24,0.1,0.34,0.18c0.2,0.15,0.35,0.34,0.46,0.56
				c0.1,0.2,0.16,0.49,0.14,0.71c-0.03,0.24-0.1,0.53-0.26,0.71c-0.12,0.17-0.28,0.31-0.47,0.4c-0.1,0.03-0.2,0.06-0.29,0.1
				c-0.32,0.07-0.65-0.03-0.92-0.2C-5.56,15.76-5.72,15.52-5.8,15.27z"/>
			<path class="st2" style="fill:#99D3DD;" d="M24.58,7.64c-2.94,0.21-6.12,0.78-8.4,2.8c-1.25,1.11-2.1,2.61-2.91,4.05c-0.7,1.25-1.37,2.52-2,3.8
				c1.85,0.44,3.5,1.85,4.2,3.68c0.42,1.08,0.56,2.25,0.45,3.39c0.01,0.01,0.02,0.02,0.03,0.03c1.2-0.56,2.46-0.97,3.66-1.61
				c1.4-0.75,4.27-2.87,2.75-4.67c-1.41-1.67-3.53-0.14-3.65,1.66c-0.11,1.56-2.53,1.37-2.42-0.18c0.15-2.17,1.76-4.24,3.93-4.59
				c-2.13-2.52-0.58-6.64,2.98-6.53c1.57,0.05,1.37,2.47-0.18,2.42c-2.08-0.06-1.52,2.63-0.05,3.18c1.83,0.69,3.55-0.93,4.22-2.48
				c0.69-1.62,0.75-3.42,0.32-5.11C26.52,7.53,25.54,7.57,24.58,7.64z M17.57,15.07c-0.02,0.06-0.03,0.12-0.05,0.18
				c-0.08,0.3-0.29,0.58-0.56,0.74c-0.26,0.15-0.63,0.22-0.92,0.13c-0.3-0.09-0.59-0.27-0.74-0.56c-0.15-0.28-0.21-0.6-0.13-0.92
				c0.02-0.06,0.03-0.12,0.05-0.18c0.08-0.3,0.29-0.58,0.56-0.74c0.26-0.15,0.63-0.22,0.92-0.13c0.3,0.09,0.59,0.27,0.74,0.56
				C17.6,14.44,17.66,14.76,17.57,15.07z"/>
			<path class="st3" style="fill:#FFD879;" d="M7.61,31.22c-1.2-0.4-2.39-1.04-3.54-1.65c-1.45-0.77-2.87-1.62-4.12-2.65c0.17,1.34,0.21,2.71,0.11,4.06
				c0.05,0.09,0.09,0.19,0.11,0.31c0.78,3.29,3.93,5.12,7.06,5.68c1.37,0.24,3.22,0.34,3.61-1.39c0.15-0.69-0.13-1.39-0.67-1.84
				c-0.32-0.27-1.76-0.86-1.83,0.04c-0.12,1.56-2.54,1.37-2.42-0.18C6.02,32.37,6.71,31.59,7.61,31.22z"/>
			<path class="st4" style="fill:#F5F3E6;" d="M15.53,28.44c-0.16,0.11-0.31,0.23-0.47,0.36c-0.33,0.27-0.64,0.55-0.94,0.84c0,0-0.01,0.01-0.01,0.01
				c0.71,0.57,1.43,1.2,2.08,1.9c0.81,0.51,1.56,1.11,2.25,1.7c0,0,0.01-0.01,0.01-0.01c0.23-0.35,0.45-0.71,0.65-1.08
				c0.1-0.17,0.18-0.35,0.27-0.53c-0.51-0.7-1.07-1.33-1.69-1.88C17.03,29.24,16.31,28.8,15.53,28.44z"/>
			<path class="st4" style="fill:#F5F3E6;" d="M18.17,27.03c0.37,0.26,0.73,0.54,1.08,0.85c0.36,0.28,0.7,0.58,1.03,0.9c0.08-0.39,0.16-0.79,0.23-1.19
				c0.11-0.57,0.26-1.17,0.46-1.78c-0.56,0.31-1.12,0.57-1.66,0.78C18.92,26.73,18.54,26.87,18.17,27.03z"/>
			<path class="st4" style="fill:#F5F3E6;" d="M14.6,33.48c-0.62-0.37-1.38-0.81-2.13-0.92c-0.01,0.05-0.03,0.1-0.05,0.14c0.52,0.71,0.82,1.53,0.85,2.38
				c0.86-0.13,1.76,0.01,2.57,0.42c0.03-0.01,0.05-0.03,0.08-0.04C15.69,34.71,15.09,34.04,14.6,33.48z"/>
			<path class="st1" style="fill:#6BB0DD;" d="M37.32,6.13C37.31,6.13,37.31,6.13,37.32,6.13c0.06-0.15,0.1-0.31,0.15-0.47c-2.29,1.1-4.88,1.49-7.51,1.68
				c0.44,2.1,0.31,4.31-0.56,6.27c-0.92,2.07-2.98,3.75-5.14,4.01c0.66,0.81,1.03,1.85,0.93,2.93c0.03,0.03,0.08,0.05,0.11,0.08
				c0.02,0.02,0.03,0.04,0.05,0.05c1.04-0.29,2.13-0.12,3.05,0.38c-0.15-2.17,1.12-4.51,2.99-5.79c1.76-1.22,3.91-1.76,6.06-1.71
				c-0.3-2.6-0.39-5.18,0.24-7.61C37.56,6,37.43,6.06,37.32,6.13C37.32,6.13,37.32,6.13,37.32,6.13z"/>
		</g>
	</g>
</g>
</svg>
