<?xml version="1.0" encoding="utf-8"?>
<!-- Generator: Adobe Illustrator 24.0.1, SVG Export Plug-In . SVG Version: 6.00 Build 0)  -->
<svg version="1.1" xmlns="http://www.w3.org/2000/svg" xmlns:xlink="http://www.w3.org/1999/xlink" x="0px" y="0px"
	 viewBox="0 0 550.68 582.04" style="enable-background:new 0 0 550.68 582.04;" xml:space="preserve">

<g id="BACKGROUND">
</g>
<g id="OBJECTS">
	<path class="st0" style="fill:#E4EBFF;" d="M213.42,495.09l22.8-15.32c0.33,0.12,0.5,0.18,0.5,0.18s-2.44,26.41-4.53,51.46h-3.72
		C220.52,512.01,213.42,495.09,213.42,495.09z"/>
	<path class="st0" style="fill:#E4EBFF;" d="M496.34,531.41H265.3l-10.74-52.72l-10.07-4.47l-8.27,5.55c-3.58-1.22-25.54-8.16-35.76,2.71
		c-1.48,1.57-2.23,7.78-2.63,10.16c-1.31,7.73-0.5,21.61,0.95,38.77H61.59c0,0,2.06-136.39-4.47-256.2
		c-4.17-76.52-15.51-139.82,24.84-162.97c38.3-21.98,94.7-10.16,167.03-8.64c123.17,2.59,218.23,3.24,241.06,5.4
		C512.88,111.16,496.34,531.41,496.34,531.41z"/>
	<g>
		<g>
			<ellipse class="st1" style="fill:none;stroke:#FFFFFF;stroke-miterlimit:10;" cx="386.13" cy="207.69" rx="53.56" ry="53.23"/>
			<ellipse class="st2" style="fill:#FFFFFF;" cx="390.31" cy="203.39" rx="48.08" ry="47.79"/>
			<ellipse class="st1" style="fill:none;stroke:#FFFFFF;stroke-miterlimit:10;" cx="395.17" cy="203.39" rx="57.89" ry="57.54"/>
		</g>
		<g>
			<g>
				<path class="st3" style="fill:#BCD3E1;" d="M232.46,397.17c-0.01-0.07-0.02-0.14-0.03-0.21c-0.07-0.48-0.16-0.96-0.25-1.43
					c-0.02-0.09-0.03-0.19-0.05-0.28c-0.09-0.47-0.2-0.94-0.31-1.41c-0.02-0.09-0.04-0.17-0.06-0.26c-0.12-0.49-0.25-0.97-0.39-1.45
					c-0.02-0.05-0.03-0.1-0.05-0.16c-4.64-15.49-19.64-27.63-38.83-30.23h0c-14.88-2.01-27.75-9.91-34.78-21.29h1.28
					c2.34,0,4.23-1.62,4.23-3.62v-0.36c0-2-1.89-3.62-4.23-3.62h-1.78h-1.83l-0.55-7.7c1.62-0.51,2.79-1.83,2.79-3.39
					c0-1.72-1.4-3.15-3.28-3.52l-0.95-13.43l-0.95,13.43c-1.87,0.37-3.27,1.8-3.27,3.52c0,1.56,1.16,2.88,2.78,3.39l-0.55,7.7h-3.61
					c-2.34,0-4.23,1.62-4.23,3.62v0.36c0,2,1.89,3.62,4.23,3.62h1.28c-7.03,11.37-19.9,19.28-34.78,21.29h0
					c-17.88,2.42-32.13,13.13-37.74,27.12c0,0,0,0,0,0c-0.01,0.03-0.02,0.05-0.03,0.08c-0.16,0.41-0.32,0.82-0.47,1.24
					c-0.06,0.17-0.12,0.34-0.18,0.51c-0.12,0.35-0.23,0.69-0.34,1.04c-0.07,0.24-0.14,0.48-0.21,0.72c-0.09,0.3-0.17,0.61-0.25,0.91
					c-0.07,0.29-0.14,0.57-0.21,0.86c-0.06,0.28-0.13,0.55-0.18,0.83c-0.07,0.32-0.12,0.65-0.18,0.97
					c-0.04,0.25-0.09,0.51-0.13,0.76c-0.05,0.35-0.1,0.71-0.14,1.07c-0.03,0.23-0.06,0.46-0.09,0.7c-0.04,0.4-0.07,0.81-0.1,1.22
					c-0.01,0.19-0.03,0.38-0.04,0.57c-0.03,0.6-0.05,1.2-0.05,1.81v1.84v127.49h158.88V403.99v0v-1.85
					C232.82,400.46,232.69,398.81,232.46,397.17z"/>
				<path class="st3" style="fill:#BCD3E1;" d="M489.69,399.17c-0.01-0.07-0.02-0.14-0.03-0.21c-0.07-0.48-0.16-0.96-0.25-1.43
					c-0.02-0.09-0.03-0.19-0.05-0.28c-0.09-0.47-0.2-0.94-0.31-1.41c-0.02-0.09-0.04-0.17-0.06-0.26c-0.12-0.49-0.25-0.97-0.39-1.45
					c-0.02-0.05-0.03-0.1-0.05-0.16c-4.64-15.49-19.64-27.63-38.83-30.23h0c-14.88-2.01-27.75-9.91-34.78-21.29h1.28
					c2.34,0,4.23-1.62,4.23-3.62v-0.36c0-2-1.89-3.62-4.23-3.62h-1.78h-1.83l-0.55-7.7c1.62-0.51,2.79-1.83,2.79-3.39
					c0-1.72-1.4-3.15-3.28-3.52l-0.95-13.43l-0.95,13.43c-1.87,0.37-3.27,1.8-3.27,3.52c0,1.56,1.16,2.88,2.78,3.39l-0.55,7.7h-3.61
					c-2.34,0-4.23,1.62-4.23,3.62v0.36c0,2,1.89,3.62,4.23,3.62h1.28c-7.03,11.37-19.9,19.28-34.78,21.29h0
					c-17.88,2.42-32.13,13.13-37.74,27.12c0,0,0,0,0,0c-0.01,0.03-0.02,0.05-0.03,0.08c-0.16,0.41-0.32,0.82-0.47,1.24
					c-0.06,0.17-0.12,0.34-0.18,0.51c-0.12,0.35-0.23,0.69-0.34,1.04c-0.07,0.24-0.14,0.48-0.21,0.72c-0.09,0.3-0.17,0.61-0.25,0.91
					c-0.07,0.29-0.14,0.57-0.21,0.86c-0.06,0.28-0.13,0.55-0.18,0.83c-0.07,0.32-0.12,0.65-0.18,0.97
					c-0.04,0.25-0.09,0.51-0.13,0.76c-0.05,0.35-0.1,0.71-0.14,1.07c-0.03,0.23-0.06,0.46-0.09,0.7c-0.04,0.4-0.07,0.81-0.1,1.22
					c-0.01,0.19-0.03,0.38-0.04,0.57c-0.03,0.6-0.05,1.2-0.05,1.81v1.84v127.49h158.88V405.99v0v-1.85
					C490.05,402.46,489.92,400.81,489.69,399.17z"/>
				<path class="st3" style="fill:#BCD3E1;" d="M361.32,358.11c-0.01-0.09-0.02-0.18-0.03-0.27c-0.07-0.63-0.16-1.25-0.25-1.87
					c-0.02-0.12-0.03-0.25-0.05-0.37c-0.09-0.62-0.2-1.23-0.31-1.84c-0.02-0.11-0.04-0.23-0.06-0.34c-0.12-0.63-0.25-1.26-0.39-1.89
					c-0.02-0.07-0.03-0.14-0.05-0.2c-4.64-20.22-19.64-36.08-38.83-39.47h0c-14.88-2.63-27.75-12.94-34.78-27.8h1.28
					c2.34,0,4.23-2.12,4.23-4.73v-0.47c0-2.61-1.89-4.73-4.23-4.73h-1.78h-1.83l-0.55-10.06c1.62-0.66,2.79-2.38,2.79-4.43
					c0-2.24-1.4-4.11-3.28-4.6l-0.95-17.53l-0.95,17.53c-1.87,0.49-3.27,2.35-3.27,4.59c0,2.04,1.16,3.76,2.78,4.42l-0.55,10.06
					h-3.61c-2.34,0-4.23,2.12-4.23,4.73v0.47c0,2.61,1.89,4.73,4.23,4.73h1.28c-7.03,14.85-19.9,25.17-34.78,27.8h0
					c-17.88,3.16-32.13,17.15-37.74,35.41c0,0,0,0,0,0c-0.01,0.03-0.02,0.07-0.03,0.1c-0.16,0.53-0.32,1.07-0.47,1.61
					c-0.06,0.22-0.12,0.44-0.18,0.66c-0.12,0.45-0.23,0.9-0.34,1.36c-0.07,0.31-0.14,0.62-0.21,0.94c-0.09,0.4-0.17,0.79-0.25,1.19
					c-0.07,0.37-0.14,0.75-0.21,1.13c-0.06,0.36-0.13,0.72-0.18,1.08c-0.07,0.42-0.12,0.84-0.18,1.27c-0.04,0.33-0.09,0.66-0.13,1
					c-0.05,0.46-0.1,0.93-0.14,1.39c-0.03,0.3-0.06,0.61-0.09,0.91c-0.04,0.53-0.07,1.06-0.1,1.59c-0.01,0.25-0.03,0.5-0.04,0.75
					c-0.03,0.78-0.05,1.57-0.05,2.36v2.41v166.47h158.88V367.01v0v-2.41C361.68,362.4,361.55,360.24,361.32,358.11z"/>
			</g>
		</g>
		<g>
			<path class="st2" style="fill:#FFFFFF;" d="M375.01,207.25c-2.11,0-2.11,3.26,0,3.26C377.12,210.51,377.12,207.25,375.01,207.25z"/>
			<path class="st2" style="fill:#FFFFFF;"  d="M276.13,122.25c-2.11,0-2.11,3.26,0,3.26C278.24,125.5,278.25,122.25,276.13,122.25z"/>
			<path class="st2"  style="fill:#FFFFFF;"  d="M197.71,254.5c-2.11,0-2.11,3.26,0,3.26C199.82,257.76,199.82,254.5,197.71,254.5z"/>
			<path class="st2" style="fill:#FFFFFF;"  d="M207.65,219.52c-2.11,0-2.11,3.26,0,3.26C209.76,222.78,209.76,219.52,207.65,219.52z"/>
			<path class="st2" style="fill:#FFFFFF;"  d="M183.14,198.92c-0.08-0.28-0.22-0.53-0.43-0.74c-0.12-0.09-0.23-0.18-0.35-0.26
				c-0.25-0.14-0.52-0.21-0.81-0.21h-0.41c-0.22-0.01-0.42,0.04-0.61,0.13c-0.21,0.07-0.39,0.18-0.55,0.34
				c-0.17,0.15-0.28,0.33-0.35,0.54c-0.1,0.19-0.14,0.39-0.13,0.61c0.02,0.14,0.04,0.28,0.05,0.41c0.08,0.28,0.22,0.53,0.43,0.74
				c0.12,0.09,0.23,0.18,0.35,0.26c0.25,0.14,0.52,0.21,0.81,0.21h0.41c0.22,0.01,0.42-0.04,0.61-0.13
				c0.21-0.07,0.39-0.18,0.55-0.34c0.17-0.15,0.28-0.33,0.35-0.54c0.1-0.19,0.14-0.39,0.13-0.61
				C183.18,199.2,183.16,199.06,183.14,198.92z"/>
			<path class="st2" style="fill:#FFFFFF;"  d="M352.92,219.52c-2.11,0-2.11,3.26,0,3.26C355.03,222.78,355.03,219.52,352.92,219.52z"/>
			<path class="st2" style="fill:#FFFFFF;"  d="M366.67,250.39c-2.11,0-2.11,3.26,0,3.26C368.79,253.64,368.79,250.39,366.67,250.39z"/>
			<path class="st2" style="fill:#FFFFFF;"  d="M352.92,169.5c-2.11,0-2.11,3.26,0,3.26C355.03,172.75,355.03,169.5,352.92,169.5z"/>
			<path class="st2"  style="fill:#FFFFFF;"  d="M416.78,253.68c-2.11,0-2.11,3.26,0,3.26C418.9,256.94,418.9,253.68,416.78,253.68z"/>
			<path class="st2" style="fill:#FFFFFF;"  d="M145.11,260.27c-2.11,0-2.11,3.26,0,3.26C147.22,263.52,147.22,260.27,145.11,260.27z"/>
			<path class="st2" style="fill:#FFFFFF;"  d="M211.59,179.49c-2.11,0-2.11,3.26,0,3.26C213.71,182.75,213.71,179.49,211.59,179.49z"/>
			<path class="st2" style="fill:#FFFFFF;"  d="M238.66,275.21c-2.11,0-2.11,3.26,0,3.26C240.77,278.47,240.77,275.21,238.66,275.21z"/>
		</g>
		<path class="st2" style="fill:#FFFFFF;"  d="M254.47,151.51c-2.11,0-2.11,3.26,0,3.26C256.58,154.77,256.58,151.51,254.47,151.51z"/>
		<path class="st2" style="fill:#FFFFFF;"  d="M312.16,141.7c-2.11,0-2.11,3.26,0,3.26C314.27,144.95,314.27,141.7,312.16,141.7z"/>
	</g>
	<g>
		<g>
			<g>
				<path class="st4" style="fill:#337BA2;" d="M263.98,417.51l-22.72,2.34c0,0-1.04-18.81-1.04-27.78c0-10.89,0.92-24.91,2.22-24.61
					c3.65,0.85,8.57,2.88,11.5,6.95C264.07,388.48,263.98,417.51,263.98,417.51z"/>
				<g>
					<path class="st5" style="fill:#F48C7F;" d="M302.69,406.77c0.06-0.79-0.62-2.31-0.28-8.49c0.1-1.78,1.5-3.89,1.5-3.89s1.75-2.58,2.47-2.32
						c0.72,0.25,1.06,1.16,0.93,1.76c-0.13,0.59-0.95,1.53-1.08,2.12c-0.13,0.59,0.86,2.27,1.41,2.71c0.55,0.44,5.44-7.33,5.44-7.33
						s1.3-2.3,1.67-3.09c0.32-0.68,1.1-2.8,1.1-2.8s1.29-2.95,2.18-2.48c0.52,0.28,0.11,3.22-0.75,5.98
						c-0.93,2.97-2.32,5.76-2.06,5.94c0.61,0.41,3.4-3.78,3.4-3.78s0.86-2.29,1.54-3.13c0.29-1.5,1.46-3.74,2.5-3.09
						c0.19,0.12-0.52,3.64-0.52,3.64s-0.88,2.15-1.23,3.2c-0.62,1.86-2.31,4.17-2.83,5.39c-0.43,1.01,0.02,0.84,0.08,0.95
						c0.05,0.09,0.82-1.16,1.91-2.84c0.55-0.85,1.35-1.68,1.83-2.77c0.45-1.01,1.26-2.3,1.77-3.07c1.44-2.17,2.55-0.84,1.54,1.41
						c-0.39,0.86-0.82,1.78-1.25,2.72c-1.7,3.65-4.02,6.58-3.71,6.89c0.4,0.4,4.31-5.19,4.31-5.19s2.97-2.39,1.47,0.93
						c-1.74,3.85-3.86,6.38-3.96,6.49c-0.68,0.72-2.3,4-5.05,6.11c-2.03,1.56-5,3.72-6.42,4.74L302.69,406.77z"/>
					<path class="st6" style="fill:#367FA7;" d="M245.28,409.08l16.74-9.78c0,0,3.24,25.13,4.59,26.22c0,0,24.51-12.37,35.54-19.09
						c3.75,1.41,6.77,4.65,9.19,7.41c-2.11,1.36-38.52,26.54-38.52,26.54s-12.56,7.94-15.24,7.17
						C252.07,446,245.28,409.08,245.28,409.08z"/>
				</g>
				<path class="st7" style="fill:#073F78;" d="M232.19,531.41c2.09-25.05,4.53-51.46,4.53-51.46s-0.17-0.06-0.5-0.18l8.27-5.55l10.07,4.47l10.74,52.72
					H232.19z"/>
				<path class="st8" style="fill:#317FA7;" d="M213.42,495.09c0,0,7.1,16.92,15.05,36.32h-29.69c-1.45-17.16-2.26-31.04-0.95-38.77
					c0.4-2.38,1.15-8.59,2.63-10.16c10.22-10.87,32.18-3.93,35.76-2.71L213.42,495.09z"/>
				<path class="st8" style="fill:#317FA7;" d="M230.48,530.68c0.65,0,1.23,0.11,1.75,0.29c2.08-24.92,4.49-51.02,4.49-51.02s-0.17-0.06-0.5-0.18
					l-22.8,15.32c0,0,7.03,16.75,14.93,36.03C228.96,530.84,229.67,530.68,230.48,530.68z"/>
				<linearGradient id="SVGID_1_" gradientUnits="userSpaceOnUse" x1="228.1949" y1="510.3524" x2="228.1949" y2="366.7364">
					<stop  offset="0" style="stop-color:#073F78"/>
					<stop  offset="0.1564" style="stop-color:#104B81"/>
					<stop  offset="0.7089" style="stop-color:#2B719C"/>
					<stop  offset="1" style="stop-color:#367FA7"/>
				</linearGradient>
				<path class="st9" style="fill:url(#SVGID_1_);" d="M252.82,390.15c0.48,3.32,9.76,109.73,9.76,109.73c-41.37,20.18-68.76,5-68.76,5s5.37-80.94,3.75-89.57
					c-1.07-5.71-6.01-41.67-2.52-43.22c3.5-1.56,13.86-4.27,19.73-4.88c5.01-0.53,24.48-0.83,27.97,0.35
					C242.73,367.55,250.81,376.19,252.82,390.15z"/>
				<path class="st10" style="fill:#F7A491;" d="M220.27,348.67l-3.04,18.79c0,0,11.14,23.91,17.8,21.9c5.59-1.69,2.15-22.23,2.15-22.23
					s-3.04-11.03-2.13-16.55C235.95,345.07,220.27,348.67,220.27,348.67z"/>
				<path class="st11" style="fill:#F47458;" d="M235.04,350.59c0.91-5.52-14.77-1.92-14.77-1.92l-0.25,1.62c0.46,1.08,1.02,2.01,1.7,2.72
					c3.5,3.65,8.98,5.85,13.72,6.01C234.96,356.04,234.67,352.85,235.04,350.59z"/>
				<path class="st10" style="fill:#F7A491;" d="M217.69,321.1c-0.44-0.16-3.55,22.2,2.35,28.35c5.9,6.15,17.4,8.17,21.53,3.32
					c4.56-5.36,4.33-29.39-4.84-35.72C227.55,310.73,217.69,321.1,217.69,321.1z"/>
				<path class="st12" style="fill:#13375B;" d="M219.86,312.48c-3.28,1.87-8.54,7.07-12.12,11.71c-4.7,6.1-1.45,16.42,5.02,21.27
					c6.47,4.85,6.35,10.39,6.35,10.39l1.05-2.85c0.75-2.19,1.06-4.52,0.81-6.82c-0.15-1.38-0.46-2.87-1.05-4.1
					c-1.56-3.24,3.34-5.39,4.72-8.08c1.06-2.07,1.11-6.81,2.78-10.24l1.99-2.62c0,0,4.59-3.46,9.08-2.48
					C242.98,319.64,237.46,298.42,219.86,312.48z"/>
				<path class="st10" style="fill:#F7A491;" d="M224.34,337.99c0.05,2.73-1.23,4.96-2.86,4.99c-1.63,0.03-2.98-2.16-3.03-4.89
					c-0.05-2.73,1.23-4.96,2.86-4.99C222.93,333.07,224.29,335.26,224.34,337.99z"/>
				<path class="st6" style="fill:#367FA7;" d="M204.27,433.87h19.86c0,0-8.83-39.11-11.83-47.32c-3.63-9.93-13.58-16.51-17.87-13.96
					c-4.29,2.55-6.66,9.18-3.13,28.62C193.81,414.99,204.27,433.87,204.27,433.87z"/>
				<path class="st2" style="fill:#FFFFFF;"  d="M241.69,343.13l-9.75,1c0,0,0.6,3.72,4.9,3.4C242.08,347.15,241.69,343.13,241.69,343.13z"/>
			</g>
			<path class="st12" style="fill:#13375B;" d="M224.34,333.1c1.95,4.81,7.72,6.15,12.87,6.01c5.15-0.13,6.32-0.24,7.27,0.01
				c1.69,1.81,2.11,18.78-0.79,22.45c-1.26,1.6-13.21,1.26-17.49-2.55c-3.07-2.73-5.93-7.88-6.16-9.57
				c-0.41-3.03-0.03-7.09-0.03-7.09c4.32,0.94,3.35-7.92,3.35-7.92L224.34,333.1z"/>
		</g>
		<g>
			<path class="st13" style="fill:#F8A492;" d="M252.91,459.04c0.76-0.18,1.99-1.3,7.92-2.86c1.71-0.45,4.12,0.26,4.12,0.26s2.96,0.89,2.94,1.66
				c-0.02,0.77-0.77,1.37-1.37,1.43c-0.6,0.05-1.73-0.45-2.33-0.39c-0.6,0.05-1.88,1.51-2.12,2.18c-0.25,0.66,8.57,3,8.57,3
				s2.56,0.55,3.43,0.66c0.74,0.1,2.97,0.21,2.97,0.21s3.17,0.34,3,1.34c-0.1,0.59-3.01,1.09-5.87,1.1
				c-3.08,0.01-6.14-0.47-6.23-0.17c-0.2,0.72,4.6,2.11,4.6,2.11s2.42,0.13,3.42,0.52c1.5-0.18,3.97,0.26,3.68,1.46
				c-0.05,0.22-3.59,0.61-3.59,0.61s-2.29-0.19-3.39-0.21c-1.94-0.03-4.64-0.95-5.95-1.08c-1.09-0.11-0.79,0.28-0.87,0.37
				c-0.07,0.07,1.34,0.43,3.26,0.97c0.97,0.27,2,0.79,3.17,0.92c1.09,0.12,2.56,0.51,3.43,0.77c2.48,0.73,1.57,2.2-0.86,1.91
				c-0.93-0.11-1.93-0.24-2.95-0.37c-3.96-0.52-7.43-1.86-7.63-1.47c-0.26,0.51,6.21,2.56,6.21,2.56s3.16,2.13-0.43,1.69
				c-4.16-0.5-7.2-1.76-7.33-1.83c-0.88-0.43-4.47-0.99-7.3-2.99c-2.09-1.47-5.03-3.67-6.43-4.73L252.91,459.04z"/>
			<path class="st6" style="fill:#367FA7;" d="M228.47,434.58c6.19,5.69,18.1,16.57,25.98,23.39c2.08,1.8,2.88,4.65,2.01,7.18h0
				c-1.43,4.14-6.54,5.56-10.13,2.81c-10.98-8.42-30.42-23.3-30.42-23.3s-11.69-9.29-11.77-12.02c-0.12-4.64,8.17-21.07,13.04-28.42
				"/>
		</g>
	</g>
	<g>
		<linearGradient id="SVGID_2_" gradientUnits="userSpaceOnUse" x1="323.6486" y1="418.1565" x2="323.6486" y2="368.4481">
			<stop  offset="0" style="stop-color:#073F78"/>
			<stop  offset="0.1564" style="stop-color:#104B81"/>
			<stop  offset="0.7089" style="stop-color:#2B719C"/>
			<stop  offset="1" style="stop-color:#367FA7"/>
		</linearGradient>
		<polygon class="st14" style="fill:url(#SVGID_2_);" points="328.44,418.16 343.1,376.95 314.36,368.45 304.2,409 		"/>
		<linearGradient id="SVGID_3_" gradientUnits="userSpaceOnUse" x1="324.0381" y1="410.3078" x2="324.0381" y2="375.6428">
			<stop  offset="0" style="stop-color:#BCE3F1"/>
			<stop  offset="1" style="stop-color:#D0F7FF"/>
		</linearGradient>
		<polygon class="st15" style="fill:url(#SVGID_3_);" points="327.26,410.31 336.65,382.84 317.88,375.64 311.43,402.46 		"/>
		
			<linearGradient id="SVGID_4_" gradientUnits="userSpaceOnUse" x1="247.4826" y1="-377.1115" x2="247.4826" y2="-377.615" gradientTransform="matrix(0.9527 0.3039 -0.3039 0.9527 -33.4497 694.473)">
			<stop  offset="0" style="stop-color:#BCE3F1"/>
			<stop  offset="1" style="stop-color:#D0F7FF"/>
		</linearGradient>
		<line class="st16" style="fill:url(#SVGID_4_);stroke:#FFFFFF;stroke-width:3;stroke-miterlimit:10;" x1="320.07" y1="411.4" x2="313.93" y2="408.91"/>
	</g>
	<g>
		<g>
			<path class="st7" style="fill:#073F78;" d="M337.08,341.92L337.08,341.92c-0.02-0.01-0.04-0.02-0.06-0.03c-0.02-0.01-0.04-0.02-0.06-0.03l0,0
				c-3.81-1.58-7.98-1.18-11.33,0.73l1.86,3.13c2.39-1.34,5.35-1.61,8.07-0.49c2.66,1.24,4.47,3.6,5.11,6.27l3.56-0.75
				C343.36,346.99,340.82,343.66,337.08,341.92z"/>
			<path class="st7" style="fill:#073F78;" d="M344.73,324.56L344.73,324.56c-0.03-0.02-0.07-0.03-0.11-0.05c-0.03-0.01-0.07-0.03-0.11-0.05l0,0
				c-10.07-4.24-21.09-3.2-29.93,1.9l3.36,5.64c7.11-4.07,15.96-4.89,24.04-1.48c7.99,3.63,13.39,10.7,15.21,18.68l6.43-1.36
				C361.38,337.9,354.67,329.09,344.73,324.56z"/>
		</g>
	</g>
	<linearGradient id="SVGID_5_" gradientUnits="userSpaceOnUse" x1="29.9241" y1="317.9395" x2="524.4175" y2="317.9395">
		<stop  offset="0" style="stop-color:#BCE3F1"/>
		<stop  offset="1" style="stop-color:#D0F7FF"/>
	</linearGradient>
	<path class="st17" style="fill:none;stroke:url(#SVGID_5_);stroke-width:3;stroke-miterlimit:10;" d="M499.39,89.93c0,0-410.29-14.37-429.23-16.15c-39.21-3.69-64.31,446.14,3.79,480.18s251.74-52.8,428.18,0
		C502.13,553.96,550.68,525.88,499.39,89.93z"/>
	<linearGradient id="SVGID_6_" gradientUnits="userSpaceOnUse" x1="47.2543" y1="294.3368" x2="545.8881" y2="294.3368">
		<stop  offset="0" style="stop-color:#BCE3F1"/>
		<stop  offset="1" style="stop-color:#D0F7FF"/>
	</linearGradient>
	<path class="st18" style="fill:none;stroke:url(#SVGID_6_);stroke-width:3;stroke-miterlimit:10;" d="M520.86,63.14c0,0-118.85,6.77-231.54,2.66C192.56,62.26,100.38,47.82,91.63,47
		c-39.21-3.69-71.29,452.44-3.19,486.48c70.93,35.46,260.62-58.53,435.16-6.3C523.6,527.18,572.15,499.1,520.86,63.14z"/>
</g>
</svg>
