<svg xmlns="http://www.w3.org/2000/svg" xmlns:xlink="http://www.w3.org/1999/xlink" viewBox="0 0 513.96 516.14">
    <defs>
        <linearGradient id="linear-gradient" x1="197.27" y1="27.16" x2="197.27" y2="170.78" gradientTransform="matrix(1, 0, 0, -1, 0, 491.04)" gradientUnits="userSpaceOnUse">
            <stop offset="0" stop-color="#073f78"/><stop offset="0.16" stop-color="#104b81"/>
            <stop offset="0.71" stop-color="#2b719c"/>
            <stop offset="1" stop-color="#367fa7"/>
        </linearGradient>
        <linearGradient id="linear-gradient-2" x1="292.72" y1="119.36" x2="292.72" y2="169.07" xlink:href="#linear-gradient"/>
        <linearGradient id="linear-gradient-3" x1="293.11" y1="127.21" x2="293.11" y2="161.88" gradientTransform="matrix(1, 0, 0, -1, 0, 491.04)" gradientUnits="userSpaceOnUse">
            <stop offset="0" stop-color="#bce3f1"/>
            <stop offset="1" stop-color="#d0f7ff"/>
        </linearGradient>
    </defs><title>Asset 1</title><g id="Layer_2" data-name="Layer 2"><g id="Layer_1-2" data-name="Layer 1">
    <path class="cls-1" style="fill:#e4ebff;" d="M182.49,448.61l22.8-15.32.5.18s-2.44,26.41-4.53,51.46h-3.72C189.59,465.53,182.49,448.61,182.49,448.61Z"/>
    <path class="cls-2" style="fill:#000a16;" d="M465.41,484.93h-231l-10.74-52.72-10.07-4.47-8.27,5.55c-3.58-1.22-25.54-8.16-35.76,2.71-1.48,1.57-2.23,7.78-2.63,10.16-1.31,7.73-.5,21.61.95,38.77H30.66s2.06-136.39-4.47-256.2C22,152.21,10.68,88.91,51,65.76c38.3-22,94.7-10.16,167-8.64,123.17,2.59,218.23,3.24,241.06,5.4S465.41,484.93,465.41,484.93Z"/>
    <ellipse class="cls-3" style="fill:none;stroke-miterlimit:10;stroke:#fff;" cx="355.2" cy="161.21" rx="53.56" ry="53.23"/>
    <ellipse class="cls-4" style="fill:#b1b7c5;" cx="359.38" cy="156.91" rx="48.08" ry="47.79"/>
    <ellipse class="cls-3" style="fill:none;stroke-miterlimit:10;stroke:#fff;" cx="364.24" cy="156.91" rx="57.89" ry="57.54"/>
    <path class="cls-5" style="fill:#091e31;" d="M201.53,350.69l0-.21c-.07-.48-.16-1-.25-1.43,0-.09,0-.19-.05-.28-.09-.47-.2-.94-.31-1.41l-.06-.26c-.12-.49-.25-1-.39-1.45,0,0,0-.1-.05-.16-4.64-15.49-19.64-27.63-38.83-30.23h0c-14.88-2-27.75-9.91-34.78-21.29h1.28c2.34,0,4.23-1.62,4.23-3.62V290c0-2-1.89-3.62-4.23-3.62h-3.61l-.55-7.7a3.71,3.71,0,0,0,2.79-3.39,3.79,3.79,0,0,0-3.28-3.52l-1-13.43-.95,13.43a3.79,3.79,0,0,0-3.27,3.52,3.7,3.7,0,0,0,2.78,3.39l-.55,7.7h-3.61c-2.34,0-4.23,1.62-4.23,3.62v.36c0,2,1.89,3.62,4.23,3.62h1.28c-7,11.37-19.9,19.28-34.78,21.29h0c-17.88,2.42-32.13,13.13-37.74,27.12h0l0,.08c-.16.41-.32.82-.47,1.24l-.18.51c-.12.35-.23.69-.34,1l-.21.72c-.09.3-.17.61-.25.91l-.21.86c-.06.28-.13.55-.18.83s-.12.65-.18,1-.09.51-.13.76-.1.71-.14,1.07l-.09.7c0,.4-.07.81-.1,1.22,0,.19,0,.38,0,.57,0,.6,0,1.2,0,1.81V485H201.9V357.51h0v-1.85A37.27,37.27,0,0,0,201.53,350.69Z"/>
    <path class="cls-5" style="fill:#091e31;" d="M458.76,352.69l0-.21c-.07-.48-.16-1-.25-1.43,0-.09,0-.19-.05-.28-.09-.47-.2-.94-.31-1.41l-.06-.26c-.12-.49-.25-1-.39-1.45,0,0,0-.1-.05-.16C453,332,438,319.86,418.79,317.26h0c-14.88-2-27.75-9.91-34.78-21.29h1.28c2.34,0,4.23-1.62,4.23-3.62V292c0-2-1.89-3.62-4.23-3.62h-3.61l-.55-7.7a3.71,3.71,0,0,0,2.79-3.39,3.79,3.79,0,0,0-3.28-3.52l-.95-13.43-.95,13.43a3.79,3.79,0,0,0-3.27,3.52,3.7,3.7,0,0,0,2.78,3.39l-.55,7.7h-3.61c-2.34,0-4.23,1.62-4.23,3.62v.36c0,2,1.89,3.62,4.23,3.62h1.28c-7,11.37-19.9,19.28-34.78,21.29h0c-17.88,2.42-32.13,13.13-37.74,27.12h0l0,.08c-.16.41-.32.82-.47,1.24l-.18.51c-.12.35-.23.69-.34,1l-.21.72c-.09.3-.17.61-.25.91l-.21.86c-.06.28-.13.55-.18.83s-.12.65-.18,1-.09.51-.13.76-.1.71-.14,1.07l-.09.7c0,.4-.07.81-.1,1.22,0,.19,0,.38,0,.57,0,.6-.05,1.2-.05,1.81V487H459.13V359.51h0v-1.85A37.27,37.27,0,0,0,458.76,352.69Z"/>
    <path class="cls-6" style="fill:#003453;" d="M330.39,311.63l0-.27c-.07-.63-.16-1.25-.25-1.87,0-.12,0-.25-.05-.37-.09-.62-.2-1.23-.31-1.84l-.06-.34q-.18-.94-.39-1.89c0-.07,0-.14-.05-.2-4.64-20.22-19.64-36.08-38.83-39.47h0c-14.88-2.63-27.75-12.94-34.78-27.8h1.28a4.5,4.5,0,0,0,4.23-4.73v-.47a4.5,4.5,0,0,0-4.23-4.73h-3.61l-.55-10.06a4.72,4.72,0,0,0,2.79-4.43,4.65,4.65,0,0,0-3.28-4.6l-1-17.53-.95,17.53a4.64,4.64,0,0,0-3.27,4.59,4.7,4.7,0,0,0,2.78,4.42l-.55,10.06h-3.61a4.5,4.5,0,0,0-4.23,4.73v.47a4.5,4.5,0,0,0,4.23,4.73H247c-7,14.85-19.9,25.17-34.78,27.8h0c-17.88,3.16-32.13,17.15-37.74,35.41h0l0,.1c-.16.53-.32,1.07-.47,1.61l-.18.66c-.12.45-.23.9-.34,1.36l-.21.94c-.09.4-.17.79-.25,1.19l-.21,1.13c-.06.36-.13.72-.18,1.08s-.12.84-.18,1.27-.09.66-.13,1-.1.93-.14,1.39l-.09.91c0,.53-.07,1.06-.1,1.59,0,.25,0,.5,0,.75,0,.78-.05,1.57-.05,2.36V487H330.76V320.53h0v-2.41A63,63,0,0,0,330.39,311.63Z"/>
    <path class="cls-7" style="fill:#fff;" d="M344.08,160.77a1.63,1.63,0,0,0,0,3.26A1.63,1.63,0,0,0,344.08,160.77Z"/>
    <path class="cls-7" style="fill:#fff;" d="M245.2,75.77a1.63,1.63,0,0,0,0,3.26A1.63,1.63,0,0,0,245.2,75.77Z"/>
    <path class="cls-7" style="fill:#fff;" d="M166.78,208a1.63,1.63,0,0,0,0,3.26A1.63,1.63,0,0,0,166.78,208Z"/>
    <path class="cls-7" style="fill:#fff;" d="M176.72,173a1.63,1.63,0,0,0,0,3.26A1.63,1.63,0,0,0,176.72,173Z"/>
    <path class="cls-7" style="fill:#fff;" d="M152.21,152.44a1.68,1.68,0,0,0-.43-.74l-.35-.26a1.63,1.63,0,0,0-.81-.21h-.41a1.27,1.27,0,0,0-.61.13,1.37,1.37,0,0,0-.55.34,1.21,1.21,0,0,0-.35.54,1.16,1.16,0,0,0-.13.61c0,.14,0,.28.05.41a1.68,1.68,0,0,0,.43.74l.35.26a1.63,1.63,0,0,0,.81.21h.41a1.27,1.27,0,0,0,.61-.13,1.37,1.37,0,0,0,.55-.34,1.21,1.21,0,0,0,.35-.54,1.16,1.16,0,0,0,.13-.61C152.25,152.72,152.23,152.58,152.21,152.44Z"/>
    <path class="cls-7" style="fill:#fff;" d="M322,173a1.63,1.63,0,0,0,0,3.26A1.63,1.63,0,0,0,322,173Z"/>
    <path class="cls-7" style="fill:#fff;" d="M335.74,203.91a1.63,1.63,0,0,0,0,3.26A1.63,1.63,0,0,0,335.74,203.91Z"/>
    <path class="cls-7" style="fill:#fff;" d="M322,123a1.63,1.63,0,0,0,0,3.26A1.63,1.63,0,0,0,322,123Z"/>
    <path class="cls-7" style="fill:#fff;" d="M385.85,207.2a1.63,1.63,0,0,0,0,3.26A1.63,1.63,0,0,0,385.85,207.2Z"/>
    <path class="cls-7" style="fill:#fff;" d="M114.18,213.79a1.63,1.63,0,0,0,0,3.26A1.63,1.63,0,0,0,114.18,213.79Z"/>
    <path class="cls-7" style="fill:#fff;" d="M180.66,133a1.63,1.63,0,0,0,0,3.26A1.63,1.63,0,0,0,180.66,133Z"/>
    <path class="cls-7" style="fill:#fff;" d="M207.73,228.73a1.63,1.63,0,0,0,0,3.26A1.63,1.63,0,0,0,207.73,228.73Z"/>
    <path class="cls-8" style="fill:#606060;" d="M223.54,105a1.63,1.63,0,0,0,0,3.26A1.63,1.63,0,0,0,223.54,105Z"/>
    <path class="cls-8" style="fill:#606060;" d="M281.23,95.22a1.63,1.63,0,0,0,0,3.26A1.63,1.63,0,0,0,281.23,95.22Z"/>
    <path class="cls-9" style="fill:#337ba2;" d="M233.05,371l-22.72,2.34s-1-18.81-1-27.78c0-10.89.92-24.91,2.22-24.61,3.65.85,8.57,2.88,11.5,6.95C233.14,342,233.05,371,233.05,371Z"/>
    <path class="cls-10" style="fill:#f48c7f;" d="M271.76,360.29a40.86,40.86,0,0,1-.28-8.49,9.73,9.73,0,0,1,1.5-3.89s1.75-2.58,2.47-2.32a1.61,1.61,0,0,1,.93,1.76c-.13.59-.95,1.53-1.08,2.12a4.74,4.74,0,0,0,1.41,2.71c.55.44,5.44-7.33,5.44-7.33s1.3-2.3,1.67-3.09,1.1-2.8,1.1-2.8,1.29-2.95,2.18-2.48c.52.28.11,3.22-.75,6-.93,3-2.32,5.76-2.06,5.94.61.41,3.4-3.78,3.4-3.78a16.13,16.13,0,0,1,1.54-3.13c.29-1.5,1.46-3.74,2.5-3.09a22,22,0,0,1-.52,3.64s-.88,2.15-1.23,3.2c-.62,1.86-2.31,4.17-2.83,5.39-.43,1,0,.84.08.95a25,25,0,0,0,1.91-2.84A19.28,19.28,0,0,0,291,346a24.36,24.36,0,0,1,1.77-3.07c1.44-2.17,2.55-.84,1.54,1.41-.39.86-.82,1.78-1.25,2.72-1.7,3.65-4,6.58-3.71,6.89s4.31-5.19,4.31-5.19,3-2.39,1.47.93a29.69,29.69,0,0,1-4,6.49c-.68.72-2.3,4-5.05,6.11-2,1.56-5,3.72-6.42,4.74Z"/>
    <path class="cls-11" style="fill:#367fa7;" d="M214.35,362.6l16.74-9.78S234.33,378,235.68,379c0,0,24.51-12.37,35.54-19.09,3.75,1.41,6.77,4.65,9.19,7.41-2.11,1.36-38.52,26.54-38.52,26.54s-12.56,7.94-15.24,7.17C221.14,399.52,214.35,362.6,214.35,362.6Z"/>
    <path class="cls-12" style="fill:#073f78;" d="M201.26,484.93c2.09-25.05,4.53-51.46,4.53-51.46l-.5-.18,8.27-5.55,10.07,4.47,10.74,52.72Z"/>
    <path class="cls-13" style="fill:#317fa7;" d="M182.49,448.61s7.1,16.92,15,36.32H167.85c-1.45-17.16-2.26-31-.95-38.77.4-2.38,1.15-8.59,2.63-10.16,10.22-10.87,32.18-3.93,35.76-2.71Z"/>
    <path class="cls-13" style="fill:#317fa7;" d="M199.55,484.2a5.3,5.3,0,0,1,1.75.29c2.08-24.92,4.49-51,4.49-51l-.5-.18-22.8,15.32s7,16.75,14.93,36A5.06,5.06,0,0,1,199.55,484.2Z"/>
    <path class="cls-14" style="fill:url(#linear-gradient);" d="M221.89,343.67c.48,3.32,9.76,109.73,9.76,109.73-41.37,20.18-68.76,5-68.76,5s5.37-80.94,3.75-89.57c-1.07-5.71-6-41.67-2.52-43.22s13.86-4.27,19.73-4.88c5-.53,24.48-.83,28,.35A45.17,45.17,0,0,1,221.89,343.67Z"/>
    <path class="cls-15" style="fill:#f7a491;" d="M189.34,302.19l-3,18.79s11.14,23.91,17.8,21.9c5.59-1.69,2.15-22.23,2.15-22.23s-3-11-2.13-16.55S189.34,302.19,189.34,302.19Z"/>
    <path class="cls-16" style="fill:#f47458;" d="M204.11,304.11c.91-5.52-14.77-1.92-14.77-1.92l-.25,1.62a9,9,0,0,0,1.7,2.72,20.93,20.93,0,0,0,13.72,6A29.16,29.16,0,0,1,204.11,304.11Z"/>
    <path class="cls-15" style="fill:#f7a491;" d="M186.76,274.62c-.44-.16-3.55,22.2,2.35,28.35s17.4,8.17,21.53,3.32c4.56-5.36,4.33-29.39-4.84-35.72S186.76,274.62,186.76,274.62Z"/>
    <path class="cls-17" style="fill:#13375b;" d="M188.93,266c-3.28,1.87-8.54,7.07-12.12,11.71-4.7,6.1-1.45,16.42,5,21.27s6.35,10.39,6.35,10.39l1-2.85a15.82,15.82,0,0,0,.81-6.82,13,13,0,0,0-1-4.1c-1.56-3.24,3.34-5.39,4.72-8.08,1.06-2.07,1.11-6.81,2.78-10.24l2-2.62s4.59-3.46,9.08-2.48S206.53,251.94,188.93,266Z"/>
    <path class="cls-15" style="fill:#f7a491;" d="M193.41,291.51c.05,2.73-1.23,5-2.86,5s-3-2.16-3-4.89,1.23-5,2.86-5S193.36,288.78,193.41,291.51Z"/>
    <path class="cls-11" style="fill:#367fa7;"  d="M173.34,387.39H193.2s-8.83-39.11-11.83-47.32c-3.63-9.93-13.58-16.51-17.87-14s-6.66,9.18-3.13,28.62C162.88,368.51,173.34,387.39,173.34,387.39Z"/>
    <path class="cls-7" style="fill:#fff;" d="M210.76,296.65l-9.75,1a4.29,4.29,0,0,0,4.9,3.4C211.15,300.67,210.76,296.65,210.76,296.65Z"/>
    <path class="cls-17" style="fill:#13375b;" d="M193.41,286.62c2,4.81,7.72,6.15,12.87,6s6.32-.24,7.27,0c1.69,1.81,2.11,18.78-.79,22.45-1.26,1.6-13.21,1.26-17.49-2.55-3.07-2.73-5.93-7.88-6.16-9.57a37.94,37.94,0,0,1,0-7.09c4.32.94,3.35-7.92,3.35-7.92Z"/>
    <path class="cls-18" style="fill:#f8a492;" d="M222,412.56a40.11,40.11,0,0,1,7.92-2.86A9.38,9.38,0,0,1,234,410s3,.89,2.94,1.66a1.61,1.61,0,0,1-1.37,1.43c-.6.05-1.73-.45-2.33-.39s-1.88,1.51-2.12,2.18,8.57,3,8.57,3,2.56.55,3.43.66,3,.21,3,.21,3.17.34,3,1.34c-.1.59-3,1.09-5.87,1.1-3.08,0-6.14-.47-6.23-.17-.2.72,4.6,2.11,4.6,2.11a16.13,16.13,0,0,1,3.42.52c1.5-.18,4,.26,3.68,1.46a21.23,21.23,0,0,1-3.59.61s-2.29-.19-3.39-.21c-1.94,0-4.64-1-5.95-1.08-1.09-.11-.79.28-.87.37a26.3,26.3,0,0,0,3.26,1,19.11,19.11,0,0,0,3.17.92,22.29,22.29,0,0,1,3.43.77c2.48.73,1.57,2.2-.86,1.91L241,429c-4-.52-7.43-1.86-7.63-1.47s6.21,2.56,6.21,2.56,3.16,2.13-.43,1.69a28.78,28.78,0,0,1-7.33-1.83c-.88-.43-4.47-1-7.3-3-2.09-1.47-5-3.67-6.43-4.73Z"/>
    <path class="cls-11" style="fill:#367fa7;"  d="M197.54,388.1c6.19,5.69,18.1,16.57,26,23.39a6.67,6.67,0,0,1,2,7.18h0a6.46,6.46,0,0,1-10.13,2.81L185,398.18s-11.69-9.29-11.77-12c-.12-4.64,8.17-21.07,13-28.42"/>
    <polygon class="cls-19" style="fill:url(#linear-gradient-2);" points="297.51 371.68 312.17 330.47 283.43 321.97 273.27 362.52 297.51 371.68"/>
    <polygon class="cls-20" style="fill:url(#linear-gradient-3);" points="296.33 363.83 305.72 336.36 286.95 329.16 280.5 355.98 296.33 363.83"/>
    <line class="cls-21" style="stroke-width:3px;fill:none;stroke-miterlimit:10;stroke:#fff;" x1="289.14" y1="364.92" x2="283" y2="362.43"/>
    <path class="cls-12" style="fill:#073f78;" d="M306.15,295.44h0l-.06,0-.06,0h0a12.89,12.89,0,0,0-11.33.73l1.86,3.13A8.86,8.86,0,0,1,309.74,305l3.56-.75A12.94,12.94,0,0,0,306.15,295.44Z"/>
    <path class="cls-12" style="fill:#073f78;" d="M313.8,278.08h0l-.11-.05-.11,0h0a33.65,33.65,0,0,0-29.93,1.9l3.36,5.64a26.36,26.36,0,0,1,39.25,17.2l6.43-1.36A33.67,33.67,0,0,0,313.8,278.08Z"/>
    <path class="cls-22" style="stroke:#527e81;fill:none;stroke-miterlimit:10;" d="M468.46,43.45S58.17,29.08,39.23,27.3C0,23.61-25.08,473.44,43,507.48s251.74-52.8,428.18,0C471.2,507.48,519.75,479.4,468.46,43.45Z"/>
    <path class="cls-22" style="stroke:#527e81;fill:none;stroke-miterlimit:10;" d="M489.93,16.66s-118.85,6.77-231.54,2.66C161.63,15.78,69.45,1.34,60.7.52,21.49-3.17-10.59,453,57.51,487c70.93,35.46,260.62-58.53,435.16-6.3C492.67,480.7,541.22,452.62,489.93,16.66Z"/></g></g></svg>